<svg xmlns="http://www.w3.org/2000/svg" viewBox="0 0 512 512" fill="none">
  <defs>
    <linearGradient id="g3" x1="0%" y1="100%" x2="100%" y2="0%">
      <stop offset="0%" stop-color="#7c3aed"/>
      <stop offset="50%" stop-color="#38bdf8"/>
      <stop offset="100%" stop-color="#fde68a"/>
    </linearGradient>
  </defs>
  <circle cx="360" cy="120" r="72" fill="url(#g3)"/>
  <path stroke="#fde68a" stroke-width="8" stroke-linecap="round" d="M360 56v24M360 184v24M296 120h24M400 120h24M312 72l17 17M391 169l17 17M312 168l17-17M391 71l17-17"/>
  <path fill="url(#g3)" opacity=".85" d="M128 160h200l-24 48h176L200 400 224 280H96l88-120z"/>
  <path fill="#fff" opacity=".5" d="M160 200h48l-8 16h56l-72 120 12-48H176l48-88z"/>
</svg>
